HIERARCHY
ROOT Reference
{
  OFFSET 0 0 0
  CHANNELS 6 Xposition Yposition Zposition Zrotation Xrotation Yrotation
  JOINT Hips
  {
    OFFSET 251.394 724.17 483.536
    CHANNELS 3 Zrotation Xrotation Yrotation
    JOINT RightUpLeg
    {
      OFFSET -0.450515 -23.4426 -1.37224
      CHANNELS 3 Zrotation Xrotation Yrotation
      JOINT RightLeg
      {
        OFFSET 112.821 0.0872427 -0.321027
        CHANNELS 3 Zrotation Xrotation Yrotation
        JOINT RightFoot
        {
          OFFSET 105.718 0.000193788 0.0213165
          CHANNELS 3 Zrotation Xrotation Yrotation
          JOINT RightToeBase
          {
            OFFSET 37.638 -0.000116272 0.00224792
            CHANNELS 3 Zrotation Xrotation Yrotation
            JOINT RightToeEnd
            {
              OFFSET 21.2112 0.114605 -0.000138184
              CHANNELS 3 Zrotation Xrotation Yrotation
              End Site
              {
                OFFSET 0 0 0
              }
            }
          }
        }
      }
    }
    JOINT LeftUpLeg
    {
      OFFSET -0.449508 23.4315 -1.37054
      CHANNELS 3 Zrotation Xrotation Yrotation
      JOINT LeftLeg
      {
        OFFSET 112.821 -0.0485242 -0.372458
        CHANNELS 3 Zrotation Xrotation Yrotation
        JOINT LeftFoot
        {
          OFFSET 105.716 0.00496094 -0.0229443
          CHANNELS 3 Zrotation Xrotation Yrotation
          JOINT LeftToeBase
          {
            OFFSET 37.639 0 0.00158905
            CHANNELS 3 Zrotation Xrotation Yrotation
            JOINT LeftToeEnd
            {
              OFFSET 21.2113 -0.125031 -0.00017438
              CHANNELS 3 Zrotation Xrotation Yrotation
              End Site
              {
                OFFSET 0 0 0
              }
            }
          }
        }
      }
    }
    JOINT Spine
    {
      OFFSET -5.01225 0.000463591 -9.60395
      CHANNELS 3 Zrotation Xrotation Yrotation
      JOINT Spine1
      {
        OFFSET 26.0222 -0.000271301 -0.000155029
        CHANNELS 3 Zrotation Xrotation Yrotation
        JOINT Spine2
        {
          OFFSET 27.173 -0.000155029 -0.000310058
          CHANNELS 3 Zrotation Xrotation Yrotation
          JOINT Spine3
          {
            OFFSET 36.3953 -0.000232544 7.75146e-005
            CHANNELS 3 Zrotation Xrotation Yrotation
            JOINT Neck
            {
              OFFSET 36.4331 0 -3.00261
              CHANNELS 3 Zrotation Xrotation Yrotation
              JOINT Head
              {
                OFFSET 23.0407 -0.000232544 -0.000310058
                CHANNELS 3 Zrotation Xrotation Yrotation
                End Site
                {
                  OFFSET 0 0 0
                }
              }
            }
            JOINT LeftShoulder
            {
              OFFSET 20.1317 6.74168 -12.6061
              CHANNELS 3 Zrotation Xrotation Yrotation
              JOINT LeftArm
              {
                OFFSET 34.2172 -5.81359e-005 7.75146e-005
                CHANNELS 3 Zrotation Xrotation Yrotation
                JOINT LeftForeArm
                {
                  OFFSET 65.4129 -0.0821605 0.0585235
                  CHANNELS 3 Zrotation Xrotation Yrotation
                  JOINT LeftHand
                  {
                    OFFSET 67.3883 0.0359667 0.0112396
                    CHANNELS 3 Zrotation Xrotation Yrotation
                    JOINT LeftHandThumb1
                    {
                      OFFSET 8.78386 2.85353 -6.05362
                      CHANNELS 3 Zrotation Xrotation Yrotation
                      JOINT LeftHandThumb2
                      {
                        OFFSET 8.25498 -0.000116272 -0.000174407
                        CHANNELS 3 Zrotation Xrotation Yrotation
                        JOINT LeftHandThumb3
                        {
                          OFFSET 7.24822 0.000310058 5.81358e-005
                          CHANNELS 3 Zrotation Xrotation Yrotation
                          JOINT LeftHandThumb4
                          {
                            OFFSET 7.0004 -3.87568e-005 -0.000310057
                            CHANNELS 3 Zrotation Xrotation Yrotation
                            End Site
                            {
                              OFFSET 0 0 0
                            }
                          }
                        }
                      }
                    }
                    JOINT LeftHandIndex1
                    {
                      OFFSET 24.0991 -1.01537 -5.40558
                      CHANNELS 3 Zrotation Xrotation Yrotation
                      JOINT LeftHandIndex2
                      {
                        OFFSET 7.26759 -0.000290679 -0.000465086
                        CHANNELS 3 Zrotation Xrotation Yrotation
                        JOINT LeftHandIndex3
                        {
                          OFFSET 7.13628 -1.93787e-005 0.000232543
                          CHANNELS 3 Zrotation Xrotation Yrotation
                          JOINT LeftHandIndex4
                          {
                            OFFSET 5.46699 9.68932e-005 -0.000387571
                            CHANNELS 3 Zrotation Xrotation Yrotation
                            End Site
                            {
                              OFFSET 0 0 0
                            }
                          }
                        }
                      }
                    }
                    JOINT LeftHandMiddle1
                    {
                      OFFSET 24.4604 -2.52837 0.918567
                      CHANNELS 3 Zrotation Xrotation Yrotation
                      JOINT LeftHandMiddle2
                      {
                        OFFSET 7.41627 -5.81359e-005 0.000116271
                        CHANNELS 3 Zrotation Xrotation Yrotation
                        JOINT LeftHandMiddle3
                        {
                          OFFSET 8.76829 3.87573e-005 -7.75142e-005
                          CHANNELS 3 Zrotation Xrotation Yrotation
                          JOINT LeftHandMiddle4
                          {
                            OFFSET 6.07588 -0.00013565 -5.81356e-005
                            CHANNELS 3 Zrotation Xrotation Yrotation
                            End Site
                            {
                              OFFSET 0 0 0
                            }
                          }
                        }
                      }
                    }
                    JOINT LeftHandRing1
                    {
                      OFFSET 22.465 -1.97467 6.3466
                      CHANNELS 3 Zrotation Xrotation Yrotation
                      JOINT LeftHandRing2
                      {
                        OFFSET 7.36666 -0.000232544 0.000387571
                        CHANNELS 3 Zrotation Xrotation Yrotation
                        JOINT LeftHandRing3
                        {
                          OFFSET 8.07624 -0.000465087 -0.000203475
                          CHANNELS 3 Zrotation Xrotation Yrotation
                          JOINT LeftHandRing4
                          {
                            OFFSET 6.04433 0.00013565 3.87571e-005
                            CHANNELS 3 Zrotation Xrotation Yrotation
                            End Site
                            {
                              OFFSET 0 0 0
                            }
                          }
                        }
                      }
                    }
                    JOINT LeftHandPinky1
                    {
                      OFFSET 19.5278 0.352933 10.4295
                      CHANNELS 3 Zrotation Xrotation Yrotation
                      JOINT LeftHandPinky2
                      {
                        OFFSET 6.16525 5.8136e-005 -0.000251921
                        CHANNELS 3 Zrotation Xrotation Yrotation
                        JOINT LeftHandPinky3
                        {
                          OFFSET 6.14448 -0.000329434 -0.00510625
                          CHANNELS 3 Zrotation Xrotation Yrotation
                          JOINT LeftHandPinky4
                          {
                            OFFSET 4.98555 0.000116272 0.000116271
                            CHANNELS 3 Zrotation Xrotation Yrotation
                            End Site
                            {
                              OFFSET 0 0 0
                            }
                          }
                        }
                      }
                    }
                  }
                }
              }
            }
            JOINT RightShoulder
            {
              OFFSET 20.1309 -6.74152 -12.6063
              CHANNELS 3 Zrotation Xrotation Yrotation
              JOINT RightArm
              {
                OFFSET 34.2171 7.75146e-005 7.75146e-005
                CHANNELS 3 Zrotation Xrotation Yrotation
                JOINT RightForeArm
                {
                  OFFSET 65.4492 0.242543 -0.176501
                  CHANNELS 3 Zrotation Xrotation Yrotation
                  JOINT RightHand
                  {
                    OFFSET 67.3888 -0.0867388 0.0597442
                    CHANNELS 3 Zrotation Xrotation Yrotation
                    JOINT RightHandThumb1
                    {
                      OFFSET 8.78307 -2.85357 -6.05302
                      CHANNELS 3 Zrotation Xrotation Yrotation
                      JOINT RightHandThumb2
                      {
                        OFFSET 8.25493 -7.75145e-005 0
                        CHANNELS 3 Zrotation Xrotation Yrotation
                        JOINT RightHandThumb3
                        {
                          OFFSET 7.24797 -0.000174408 0.000155029
                          CHANNELS 3 Zrotation Xrotation Yrotation
                          JOINT RightHandThumb4
                          {
                            OFFSET 7.00062 0 0
                            CHANNELS 3 Zrotation Xrotation Yrotation
                            End Site
                            {
                              OFFSET 0 0 0
                            }
                          }
                        }
                      }
                    }
                    JOINT RightHandIndex1
                    {
                      OFFSET 24.0991 1.01525 -5.40578
                      CHANNELS 3 Zrotation Xrotation Yrotation
                      JOINT RightHandIndex2
                      {
                        OFFSET 7.26773 7.75144e-005 0.000232543
                        CHANNELS 3 Zrotation Xrotation Yrotation
                        JOINT RightHandIndex3
                        {
                          OFFSET 7.13572 -0.000310058 3.87571e-005
                          CHANNELS 3 Zrotation Xrotation Yrotation
                          JOINT RightHandIndex4
                          {
                            OFFSET 5.46717 0 3.87572e-005
                            CHANNELS 3 Zrotation Xrotation Yrotation
                            End Site
                            {
                              OFFSET 0 0 0
                            }
                          }
                        }
                      }
                    }
                    JOINT RightHandMiddle1
                    {
                      OFFSET 24.4603 2.52899 0.918547
                      CHANNELS 3 Zrotation Xrotation Yrotation
                      JOINT RightHandMiddle2
                      {
                        OFFSET 7.41641 -0.000116272 -0.000116272
                        CHANNELS 3 Zrotation Xrotation Yrotation
                        JOINT RightHandMiddle3
                        {
                          OFFSET 8.76765 -3.87577e-005 0.000232543
                          CHANNELS 3 Zrotation Xrotation Yrotation
                          JOINT RightHandMiddle4
                          {
                            OFFSET 6.07609 -0.000193787 -0.000116271
                            CHANNELS 3 Zrotation Xrotation Yrotation
                            End Site
                            {
                              OFFSET 0 0 0
                            }
                          }
                        }
                      }
                    }
                    JOINT RightHandRing1
                    {
                      OFFSET 22.465 1.97571 6.34696
                      CHANNELS 3 Zrotation Xrotation Yrotation
                      JOINT RightHandRing2
                      {
                        OFFSET 7.36684 0.000193786 0.000155029
                        CHANNELS 3 Zrotation Xrotation Yrotation
                        JOINT RightHandRing3
                        {
                          OFFSET 8.07614 -0.000271301 0
                          CHANNELS 3 Zrotation Xrotation Yrotation
                          JOINT RightHandRing4
                          {
                            OFFSET 6.04468 0.000232543 0
                            CHANNELS 3 Zrotation Xrotation Yrotation
                            End Site
                            {
                              OFFSET 0 0 0
                            }
                          }
                        }
                      }
                    }
                    JOINT RightHandPinky1
                    {
                      OFFSET 19.5277 -0.352346 10.4296
                      CHANNELS 3 Zrotation Xrotation Yrotation
                      JOINT RightHandPinky2
                      {
                        OFFSET 6.16508 0 0.000232543
                        CHANNELS 3 Zrotation Xrotation Yrotation
                        JOINT RightHandPinky3
                        {
                          OFFSET 6.14396 -0.000155048 -0.0048834
                          CHANNELS 3 Zrotation Xrotation Yrotation
                          JOINT RightHandPinky4
                          {
                            OFFSET 4.98577 -7.75146e-005 -7.75143e-005
                            CHANNELS 3 Zrotation Xrotation Yrotation
                            End Site
                            {
                              OFFSET 0 0 0
                            }
                          }
                        }
                      }
                    }
                  }
                }
              }
            }
          }
        }
      }
    }
  }
}
MOTION
Frames:	4
Frame Time:	0.0333333
0 0 0 -90 -7.01671e-015 -180 4.9281 -84.9791 -112.111 177.348 -0.172847 -109.538 -0.0445133 -0.0952098 -25.0534 -3.6668 5.72647 51.7438 -0.571051 0.114787 56.8335 -6.40866e-005 1.85287e-005 -86.4974 -176.742 -2.52933 -106.998 -0.0365061 -0.0717541 -26.9716 -0.536804 -2.28783 51.1509 0.581579 -0.122613 56.7833 0.000468125 -0.000261055 -86.4975 -1.2549e-015 4.00447e-015 124.799 0.717967 -1.44247 -10.8417 -1.10962 -1.26256 -12.6555 -0.0897331 0.25525 3.52262 0.366914 -1.2628 24.9605 -0.264871 -1.25151 47.5192 99.7919 22.783 -25.3958 73.4208 19.6552 3.46714 1.39104e-005 -15.3271 20.9347 5.14621 -7.01052 -10.0707 -156.375 -1.71324 169.119 0.000337392 2.66012e-005 10.4071 0.00014522 0.000134717 11.6821 0.000105865 -0.000878001 2.17721e-005 114.283 82.3794 -91.1775 -0.000400301 -0.000302815 6.96295 0.0011191 -0.000576968 9.2605 -0.000376725 -0.000235426 -0.000342362 48.1841 89.7917 -17.6118 9.54649e-005 -0.000268632 14.5642 0.00101828 -0.000515638 14.3239 -0.000267983 -8.12038e-005 0.00594056 -51.5866 87.5871 85.9206 0.000187035 -0.000890303 18.2694 0.00154888 -0.000187358 18.0266 -0.000350444 -0.000514723 0.000689848 -53.6713 84.837 88.0893 0.00113951 -0.00113826 18.1542 0.000162467 -6.21311e-005 18.0937 0.000239911 0.000114618 -0.000411517 -100.112 -21.6625 -30.5009 -66.7708 -33.3471 7.61539 -2.23819e-005 23.0798 28.1054 -12.961 2.92207 -4.33074 156.375 1.71444 169.119 -0.000110525 0.000159246 10.407 5.55929e-005 0.000263515 11.682 -0.000137329 4.57764e-005 -180 -114.284 -82.3794 -91.1779 -0.00864146 -0.00174307 6.96042 0.000224771 0.000209548 9.26048 0.00880431 -0.000549317 -180 -48.18 -89.7916 -17.6076 -1.24426e-005 0.000116695 14.57 3.48333e-005 0.000345414 14.3239 0.000305175 0.000228882 -180 51.5977 -87.6084 85.9345 3.97007e-005 1.25401e-005 18.2694 -2.4801e-005 0.000472586 18.0266 0.000305175 0.000137329 -180 53.6712 -84.837 88.0892 -2.79662e-006 0.000320827 18.1542 4.64465e-006 0.000316558 18.0937 0.000320434 0.000167847 -180 
0 0 0 -90 -7.01671e-015 -180 3.8805 -84.7716 -113.22 176.75 -0.16031 -109.931 -0.0525061 -0.112869 -24.945 -4.11524 6.43776 52.001 -0.57145 0.115046 56.8414 -6.40993e-005 1.53036e-005 -86.4974 -176.478 -3.0839 -107.252 -0.0439917 -0.0868687 -26.8604 -0.71509 -2.67288 51.2404 0.581591 -0.122615 56.7839 0.000468126 -0.000261028 -86.4975 1.24514e-015 -3.99039e-015 124.659 0.569678 -1.34928 -10.9148 -0.9302 -1.18014 -12.7055 -0.0375222 0.100964 3.72693 0.390781 -1.31583 25.3044 -0.126161 -1.52401 47.4886 100.122 22.7647 -25.6673 73.3027 20.0599 3.26366 1.20161e-005 -15.8587 20.7353 5.30228 -7.33111 -10.1093 -156.328 -1.64042 169.224 0.000350381 1.80893e-005 10.413 0.000175702 0.000124281 11.7165 9.13528e-005 -0.000896249 0.000197222 114.141 82.3399 -90.967 -0.000416263 -0.000309067 6.96667 0.00108862 -0.000587779 9.28099 -0.000245245 -0.000253997 -0.000210882 48.3007 89.8306 -17.6167 5.34451e-005 -0.000274896 14.5843 0.000804855 -0.000317267 14.3911 -0.000226604 0.000556114 0.00458562 -52.2908 87.5212 86.7418 0.000161454 -0.000895731 18.2996 0.00128681 3.5256e-005 18.1093 -0.000479196 -0.000490232 0.000732533 -53.9383 84.7203 88.4587 0.00448591 0.000501623 18.2045 -9.39514e-005 0.000156424 18.1646 -0.00154214 0.000472511 0.00394103 -99.7861 -21.681 -30.2439 -66.5033 -34.1393 7.71157 -2.91688e-005 21.9408 29.2658 -13.0974 2.74152 -4.68653 156.328 1.63967 169.224 -0.000108779 0.00015156 10.4129 7.19981e-005 0.000270876 11.7164 -0.000137329 4.57764e-005 -180 -114.141 -82.3399 -90.9668 -0.00583498 -0.00118771 6.96499 0.000177232 0.000241868 9.28098 0.00524902 0.000503541 -180 -48.2599 -89.8305 -17.5759 -5.32214e-005 0.000129029 14.5881 -7.58851e-005 0.000214985 14.3822 -0.000289917 0.00193787 180 52.303 -87.5384 86.7563 -8.60176e-006 -4.76052e-005 18.3044 -0.000109565 0.000350167 18.0984 0.000457763 0.000106812 -180 53.937 -84.7202 88.4573 -4.35833e-005 0.000266429 18.2066 -0.000100009 0.000197874 18.1553 0.00134277 -0.000823976 -180 
0 0 0 -90 -7.01671e-015 -180 2.67482 -84.5045 -114.563 176.203 -0.215556 -110.41 -0.0614266 -0.132537 -24.8641 -4.55976 7.02911 52.2917 -0.571849 0.115305 56.8493 -6.40804e-005 1.15949e-005 -86.4974 -176.17 -3.73562 -107.598 -0.0514138 -0.102037 -26.744 -0.925964 -3.08107 51.3446 0.581603 -0.122617 56.7845 0.000468129 -0.000261039 -86.4975 1.23462e-015 -3.97513e-015 124.508 0.386743 -1.27659 -10.9455 -0.719173 -1.10099 -12.719 0.0256858 -0.0808069 4.04048 0.419176 -1.39536 25.4909 -0.0241794 -1.75589 47.5742 100.557 22.7562 -25.9342 72.8295 20.491 3.47257 1.28928e-005 -16.4975 20.5091 5.32825 -8.07852 -10.1793 -156.288 -1.57793 169.314 0.000360536 8.87491e-006 10.4188 0.00020646 0.00011778 11.7509 7.59917e-005 -0.000913752 0.000372676 114.036 82.3055 -90.8124 -0.000432068 -0.000316887 6.9704 0.00105699 -0.000601856 9.30149 -0.000113978 -0.000275342 -7.6841e-005 48.3609 89.8643 -17.5947 4.99666e-005 -0.000275157 14.6044 0.000841041 -0.00040409 14.433 -0.000186032 0.00119744 0.00322898 -52.8266 87.4635 87.3634 0.000136707 -0.000897812 18.3298 0.00133528 -0.000305945 18.1701 -0.00060897 -0.00046526 0.000780345 -54.1271 84.6188 88.7227 0.00783213 0.00214146 18.2548 -5.10641e-005 7.03046e-005 18.2088 -0.00332065 0.000831763 0.00829102 -99.4117 -21.7228 -29.8475 -66.1808 -34.8375 7.72294 -2.96731e-005 21.4718 30.6777 -13.1215 2.39576 -4.82031 156.288 1.57979 169.314 -0.000102498 0.000143179 10.4188 8.99844e-005 0.000278432 11.7509 -0.000137329 4.57764e-005 -180 -114.037 -82.3055 -90.813 -0.00302875 -0.000632267 6.96956 0.000129468 0.000273045 9.30149 0.00167846 0.00154114 -180 -48.3394 -89.8643 -17.5733 -8.22712e-005 0.000146109 14.6063 -0.000160335 8.88678e-005 14.4405 -0.000289917 0.00193787 180 52.8419 -87.4772 87.3807 -4.64714e-005 -0.000100268 18.3393 -0.000209853 0.000223713 18.1701 0.000595092 7.62941e-005 -180 54.1271 -84.6188 88.7226 -9.10791e-005 0.000209763 18.259 -0.00018227 8.4182e-005 18.2169 0.00236511 -0.00180054 -180 
0 0 0 -90 -7.01671e-015 -180 0.867336 -84.2447 -116.615 175.666 -0.396529 -111.02 -0.0752355 -0.162734 -24.8105 -5.02891 7.52611 52.6213 -0.572248 0.115563 56.8571 -6.40833e-005 4.82448e-006 -86.4974 -175.966 -4.48786 -108.129 -0.0589731 -0.118156 -26.5259 -1.20931 -3.42973 51.4214 0.581614 -0.122619 56.785 0.000468129 -0.00026104 -86.4975 -2.6681e-006 8.62006e-006 124.397 0.158739 -1.25009 -10.8901 -0.412655 -1.02675 -12.7435 0.127229 -0.366456 4.21247 0.410863 -1.33068 25.9241 0.0433943 -1.91325 47.6863 101.254 22.7119 -26.2572 71.9136 21.0752 3.76138 1.19981e-005 -17.2145 20.4059 5.07187 -8.70654 -10.3022 -156.255 -1.53158 169.392 0.000372304 9.12606e-007 10.4247 0.000234894 0.000108576 11.7854 6.06207e-005 -0.000929547 0.000548557 113.977 82.2782 -90.7245 -0.000448018 -0.000322966 6.97412 0.00102604 -0.000611211 9.32199 1.68393e-005 -0.000293698 5.46407e-005 48.4042 89.8932 -17.581 2.8813e-005 -0.000281636 14.6245 0.000878223 -0.000491282 14.4748 -0.000143742 0.00183815 0.00187062 -53.2317 87.4137 87.8282 0.000113429 -0.00089953 18.3599 0.00132989 -0.000234512 18.2048 -0.000738449 -0.000440288 0.000827302 -54.2562 84.5317 88.904 0.00560755 0.001023 18.2768 6.93907e-007 -1.33897e-005 18.2531 -0.00510377 0.00118981 0.0126427 -98.9366 -21.7775 -29.335 -65.7358 -35.5267 7.9022 -2.66856e-005 20.8912 31.6293 -12.7703 3.1817 -3.90388 156.255 1.53225 169.392 -0.000100226 0.00013627 10.4248 0.000112155 0.000287165 11.7854 -0.000137329 3.05176e-005 -180 -113.977 -82.2782 -90.7248 -0.000224018 -7.68623e-005 6.97413 8.1446e-005 0.000305215 9.32199 -0.00189209 0.002594 180 -48.3653 -89.8932 -17.5421 -0.000116974 0.000161143 14.6245 -6.14377e-005 -6.178e-006 14.4634 -0.000289917 0.00192261 180 53.2439 -87.4245 87.8422 -7.43558e-007 -0.000120076 18.3531 -0.000344639 0.000602141 18.2048 0.000732421 4.57765e-005 -180 54.2556 -84.5316 88.9034 -4.35638e-005 0.00019546 18.2796 -0.000308523 0.000441513 18.2466 0.0034027 -0.00279236 -180 
